<svg width="44" height="44" viewBox="0 0 44 44" fill="none" xmlns="http://www.w3.org/2000/svg">
<path d="M33.385 24.0707L18.3095 37.2597C16.533 38.8162 13.75 37.5512 13.75 35.189V8.811C13.7495 8.28233 13.9015 7.76473 14.1876 7.32019C14.4738 6.87565 14.882 6.52302 15.3634 6.30451C15.8448 6.08601 16.379 6.0109 16.902 6.08818C17.425 6.16546 17.9146 6.39185 18.3123 6.74025L33.3823 19.9292C33.6776 20.1874 33.9144 20.5057 34.0766 20.8628C34.2388 21.22 34.3227 21.6077 34.3227 22C34.3227 22.3923 34.2388 22.78 34.0766 23.1371C33.9144 23.4943 33.6776 23.8126 33.3823 24.0707H33.385Z" fill="white"/>
</svg>
